<?xml version="1.0" encoding="utf-8"?>
<svg
  version="1.1"
  xmlns="http://www.w3.org/2000/svg"
  xmlns:xlink="http://www.w3.org/1999/xlink"
  viewBox="0 0 348.8 629"
  id="map"
  xml:space="preserve">
  <style type="text/css">
    .mark {
      fill: transparent;
      cursor: pointer;
    }
  </style>
  <path
    d="M264.8,604.2H156V378.7h81.3v-1.4H156V256.9h163.2v0V111.3H83.4V75.8H82v35.5H29.6v145.6h124.9v120.4h-76v0.7h-0.7v56.2h1.4
	v-55.6h75.3v225.5H79.3v-66.2h-1.4v66.2H62.2v2.9h203.7v-1.5h0.3v-57h-1.4V604.2z M30.7,255.8L30.7,255.8V112.3h287.4v143.5H30.7z
	 M229.1,60.8V89h-1.4V60.8H229.1z M348.8,41.4v564.2h0v1.4h-59.1v-2.9h56.3V515h-79.7v9.4h-1.4V515h-72.3v-1.4h153.5V378.7h-80.4
	V378h-0.7v-97.9h1.4v97.2h79.7V42.9H156v44.9h-1.4V42.9H2.9v334.4h52v1.4h-52v134.9h75v-55.3h1.4v55.3h51.2v1.4H2.9v89.2h14.7v2.9H0
	v-2.9h0V42.9v-1.4V40h348.7L348.8,41.4L348.8,41.4z M33.9,606l5.7,6.2l-0.6,0.5l-5.2-5.6v21.7h-0.8v-21.7l-4,5.6l-0.6-0.5l4.8-6.6
	l0.2,0.1l0.2-0.2L33.9,606L33.9,606L33.9,606z M283,622l0.6,0.5l-4.8,6.6l-0.2-0.1l-0.2,0.2l-0.2-0.2h-0.1v-0.1l-5.7-6.2l0.5-0.5
	l5.2,5.6v-21.7h0.8v21.6L283,622z" />
  <g id="numbers">
    <path
      d="M189.2,78.5c0,1.1,0,2.1-0.1,3.1s-0.3,1.7-0.5,2.4c-0.3,0.7-0.7,1.2-1.3,1.6c-0.6,0.4-1.4,0.5-2.3,0.5
		c-1,0-1.7-0.2-2.3-0.5c-0.6-0.4-1-0.9-1.3-1.5c-0.3-0.7-0.5-1.4-0.5-2.4c-0.1-0.9-0.1-2-0.1-3.1v-3.3c0-1.1,0.1-2.1,0.2-3
		c0.1-0.9,0.3-1.7,0.6-2.3c0.3-0.6,0.7-1.1,1.3-1.4c0.6-0.3,1.3-0.5,2.3-0.5c1,0,1.7,0.2,2.3,0.5c0.6,0.3,1,0.8,1.3,1.4
		c0.3,0.6,0.5,1.4,0.6,2.3c0.1,0.9,0.1,1.9,0.1,2.9L189.2,78.5L189.2,78.5z M187.2,75.4c0-0.9,0-1.8-0.1-2.5
		c-0.1-0.7-0.2-1.3-0.3-1.8c-0.2-0.5-0.4-0.9-0.7-1.1c-0.3-0.2-0.7-0.4-1.2-0.4c-0.5,0-0.9,0.1-1.2,0.4c-0.3,0.2-0.5,0.6-0.7,1.1
		s-0.3,1.1-0.3,1.8c-0.1,0.7-0.1,1.6-0.1,2.5v3.5c0,0.9,0,1.7,0.1,2.4c0.1,0.7,0.2,1.3,0.3,1.8s0.4,0.8,0.7,1.1
		c0.3,0.3,0.7,0.4,1.2,0.4s0.9-0.1,1.2-0.4c0.3-0.2,0.5-0.6,0.7-1.1c0.2-0.5,0.3-1.1,0.3-1.8c0.1-0.7,0.1-1.5,0.1-2.4L187.2,75.4
		L187.2,75.4z M200.1,80c0,0.8-0.1,1.7-0.2,2.4c-0.1,0.8-0.3,1.4-0.6,1.9c-0.3,0.5-0.8,1-1.3,1.3c-0.6,0.3-1.4,0.5-2.3,0.5
		c-1.4,0-2.5-0.4-3.1-1.1c-0.6-0.7-0.9-1.8-0.9-3.2h2c0,0.8,0.2,1.5,0.4,2c0.3,0.5,0.8,0.8,1.7,0.8c0.5,0,0.9-0.1,1.2-0.3
		c0.3-0.2,0.5-0.5,0.7-0.9c0.2-0.4,0.3-0.9,0.3-1.4c0.1-0.6,0.1-1.2,0.1-1.9c0-0.5,0-1-0.1-1.5c-0.1-0.5-0.2-0.9-0.4-1.2
		c-0.2-0.4-0.4-0.6-0.7-0.8c-0.3-0.2-0.7-0.3-1.1-0.3c-0.6,0-1.1,0.2-1.4,0.5c-0.4,0.3-0.7,0.8-0.8,1.3h-1.9l0.3-9.5h7.6v1.5h-5.7
		l-0.2,6c0.4-0.4,0.8-0.8,1.2-1c0.4-0.2,0.9-0.3,1.5-0.3c0.8,0,1.4,0.2,1.9,0.5c0.5,0.3,0.9,0.7,1.1,1.2c0.3,0.5,0.5,1.1,0.5,1.7
		C200.1,78.6,200.1,79.3,200.1,80L200.1,80z" />
    <path
      d="M68.8,321.8c0,1.1,0,2.1-0.1,3.1c-0.1,0.9-0.3,1.7-0.5,2.4c-0.3,0.7-0.7,1.2-1.3,1.6c-0.6,0.4-1.4,0.5-2.3,0.5
		c-1,0-1.7-0.2-2.3-0.5c-0.6-0.4-1-0.9-1.3-1.5c-0.3-0.7-0.5-1.4-0.5-2.4c-0.1-0.9-0.1-2-0.1-3.1v-3.3c0-1.1,0.1-2.1,0.2-3
		c0.1-0.9,0.3-1.7,0.6-2.3s0.7-1.1,1.3-1.4c0.6-0.3,1.3-0.5,2.3-0.5c1,0,1.7,0.2,2.3,0.5c0.6,0.3,1,0.8,1.3,1.4
		c0.3,0.6,0.5,1.4,0.6,2.3c0.1,0.9,0.1,1.9,0.1,2.9L68.8,321.8L68.8,321.8z M66.8,318.7c0-0.9,0-1.8-0.1-2.5
		c-0.1-0.7-0.2-1.3-0.3-1.8c-0.2-0.5-0.4-0.9-0.7-1.1c-0.3-0.2-0.7-0.4-1.2-0.4c-0.5,0-0.9,0.1-1.2,0.4c-0.3,0.2-0.5,0.6-0.7,1.1
		s-0.3,1.1-0.3,1.8c-0.1,0.7-0.1,1.6-0.1,2.5v3.5c0,0.9,0,1.7,0.1,2.4c0.1,0.7,0.2,1.3,0.3,1.8s0.4,0.8,0.7,1.1
		c0.3,0.3,0.7,0.4,1.2,0.4c0.5,0,0.9-0.1,1.2-0.4c0.3-0.2,0.5-0.6,0.7-1.1c0.2-0.5,0.3-1.1,0.3-1.8c0.1-0.7,0.1,1.6-0.1,2.5
		L66.8,318.7L66.8,318.7z M79.7,323.2c0,0.8-0.1,1.7-0.2,2.4c-0.1,0.8-0.3,1.4-0.6,1.9c-0.3,0.5-0.8,1-1.3,1.3
		c-0.6,0.3-1.4,0.5-2.3,0.5c-1.4,0-2.5-0.4-3.1-1.1c-0.6-0.7-0.9-1.8-0.9-3.2h2c0,0.8,0.2,1.5,0.4,2s0.8,0.8,1.7,0.8
		c0.5,0,0.9-0.1,1.2-0.3c0.3-0.2,0.5-0.5,0.7-0.9c0.2-0.4,0.3-0.9,0.3-1.4c0.1-0.6,0.1-1.2,0.1-1.9c0-0.5,0-1-0.1-1.5
		c-0.1-0.5-0.2-0.9-0.4-1.2c-0.2-0.4-0.4-0.6-0.7-0.8c-0.3-0.2-0.7-0.3-1.1-0.3c-0.6,0-1.1,0.2-1.4,0.5c-0.4,0.3-0.7,0.8-0.8,1.3
		h-1.9l0.3-9.5h7.6v1.5h-5.7l-0.2,6c0.4-0.4,0.8-0.8,1.2-1c0.4-0.2,0.9-0.3,1.5-0.3c0.8,0,1.4,0.2,1.9,0.5c0.5,0.3,0.9,0.7,1.1,1.2
		c0.3,0.5,0.5,1.1,0.5,1.7C79.7,321.9,79.7,322.6,79.7,323.2L79.7,323.2z" />
    <path
      d="M38.1,454.2c0,1.1,0,2.1-0.1,3.1c-0.1,0.9-0.3,1.7-0.5,2.4c-0.3,0.7-0.7,1.2-1.3,1.6c-0.6,0.4-1.4,0.5-2.3,0.5
		c-1,0-1.7-0.2-2.3-0.5c-0.6-0.4-1-0.9-1.3-1.5c-0.3-0.7-0.5-1.4-0.5-2.4c-0.1-0.9-0.1-2-0.1-3.1v-3.3c0-1.1,0.1-2.1,0.2-3
		s0.3-1.7,0.6-2.3c0.3-0.6,0.7-1.1,1.3-1.4c0.6-0.3,1.3-0.5,2.3-0.5c1,0,1.7,0.2,2.3,0.5c0.6,0.3,1,0.8,1.3,1.4
		c0.3,0.6,0.5,1.4,0.6,2.3c0.1,0.9,0.1,1.9,0.1,2.9L38.1,454.2L38.1,454.2z M36.1,451.1c0-0.9,0-1.8-0.1-2.5
		c-0.1-0.7-0.2-1.3-0.3-1.8c-0.2-0.5-0.4-0.9-0.7-1.1c-0.3-0.2-0.7-0.4-1.2-0.4s-0.9,0.1-1.2,0.4c-0.3,0.2-0.5,0.6-0.7,1.1
		c-0.2,0.5-0.3,1.1-0.3,1.8c-0.1,0.7-0.1,1.6-0.1,2.5v3.5c0,0.9,0,1.7,0.1,2.4c0.1,0.7,0.2,1.3,0.3,1.8c0.2,0.5,0.4,0.8,0.7,1.1
		c0.3,0.3,0.7,0.4,1.2,0.4s0.9-0.1,1.2-0.4c0.3-0.2,0.5-0.6,0.7-1.1c0.2-0.5,0.3-1.1,0.3-1.8c0.1-0.7,0.1-1.5,0.1-2.4L36.1,451.1
		L36.1,451.1z M47.5,457.2v4.2h-1.9v-4.2h-5.6v-1.9l4.8-11.3h2.7v11.6h1.9v1.5H47.5L47.5,457.2z M45.7,445.8l-4.1,9.9h4.1V445.8z" />
    <path
      d="M40,563.1c0,1.1,0,2.1-0.1,3.1c-0.1,0.9-0.3,1.7-0.5,2.4c-0.3,0.7-0.7,1.2-1.3,1.6c-0.6,0.4-1.4,0.5-2.3,0.5
		c-1,0-1.7-0.2-2.3-0.5c-0.6-0.4-1-0.9-1.3-1.5c-0.3-0.7-0.5-1.4-0.5-2.4c-0.1-0.9-0.1-2-0.1-3.1v-3.3c0-1.1,0.1-2.1,0.2-3
		s0.3-1.7,0.6-2.3c0.3-0.6,0.7-1.1,1.3-1.4c0.6-0.3,1.3-0.5,2.3-0.5c1,0,1.7,0.2,2.3,0.5c0.6,0.3,1,0.8,1.3,1.4
		c0.3,0.6,0.5,1.4,0.6,2.3c0.1,0.9,0.1,1.9,0.1,2.9L40,563.1L40,563.1z M38,560c0-0.9,0-1.8-0.1-2.5c-0.1-0.7-0.2-1.3-0.3-1.8
		c-0.2-0.5-0.4-0.9-0.7-1.1c-0.3-0.2-0.7-0.4-1.2-0.4s-0.9,0.1-1.2,0.4c-0.3,0.2-0.5,0.6-0.7,1.1c-0.2,0.5-0.3,1.1-0.3,1.8
		c-0.1,0.7-0.1,1.6-0.1,2.5v3.5c0,0.9,0,1.7,0.1,2.4c0.1,0.7,0.2,1.3,0.3,1.8c0.2,0.5,0.4,0.8,0.7,1.1c0.3,0.3,0.7,0.4,1.2,0.4
		s0.9-0.1,1.2-0.4c0.3-0.2,0.5-0.6,0.7-1.1c0.2-0.5,0.3-1.1,0.3-1.8c0.1-0.7,0.1-1.5,0.1-2.4L38,560L38,560z M46.5,570.4v-15
		c-0.4,0.4-0.9,0.8-1.3,1.2c-0.5,0.4-1,0.7-1.5,1v-2c0.5-0.3,1-0.7,1.6-1.2c0.6-0.5,1-1,1.4-1.4h1.8v17.4L46.5,570.4L46.5,570.4z" />
    <path
      d="M116.3,563.1c0,1.1,0,2.1-0.1,3.1c-0.1,0.9-0.3,1.7-0.5,2.4c-0.3,0.7-0.7,1.2-1.3,1.6c-0.6,0.4-1.4,0.5-2.3,0.5
		c-1,0-1.7-0.2-2.3-0.5c-0.6-0.4-1-0.9-1.3-1.5c-0.3-0.7-0.5-1.4-0.5-2.4s-0.1-2-0.1-3.1v-3.3c0-1.1,0.1-2.1,0.2-3
		c0.1-0.9,0.3-1.7,0.6-2.3s0.7-1.1,1.3-1.4c0.6-0.3,1.3-0.5,2.3-0.5c1,0,1.7,0.2,2.3,0.5s1,0.8,1.3,1.4c0.3,0.6,0.5,1.4,0.6,2.3
		c0.1,0.9,0.1,1.9,0.1,2.9L116.3,563.1L116.3,563.1z M114.3,560c0-0.9,0-1.8-0.1-2.5s-0.2-1.3-0.3-1.8c-0.2-0.5-0.4-0.9-0.7-1.1
		c-0.3-0.2-0.7-0.4-1.2-0.4c-0.5,0-0.9,0.1-1.2,0.4s-0.5,0.6-0.7,1.1c-0.2,0.5-0.3,1.1-0.3,1.8c-0.1,0.7-0.1,1.6-0.1,2.5v3.5
		c0,0.9,0,1.7,0.1,2.4c0.1,0.7,0.2,1.3,0.3,1.8c0.2,0.5,0.4,0.8,0.7,1.1c0.3,0.3,0.7,0.4,1.2,0.4c0.5,0,0.9-0.1,1.2-0.4
		c0.3-0.2,0.5-0.6,0.7-1.1s0.3-1.1,0.3-1.8c0.1-0.7,0.1-1.5,0.1-2.4L114.3,560L114.3,560z M118.4,570.4v-1.7l5.6-8.9
		c0.3-0.5,0.5-1,0.7-1.6c0.2-0.6,0.3-1.2,0.3-1.7c0-0.7-0.2-1.2-0.5-1.6c-0.4-0.4-0.9-0.6-1.6-0.6c-0.7,0-1.2,0.2-1.5,0.5
		c-0.3,0.3-0.6,0.8-0.7,1.4c0,0.2-0.1,0.4-0.1,0.6s0,0.4,0,0.6h-2c0-0.2,0-0.4,0-0.5c0-0.2,0-0.3,0-0.4c0.1-1.2,0.5-2.1,1.3-2.7
		c0.8-0.6,1.8-0.9,3-0.9c2.7,0,4.1,1.3,4.1,3.9c0,0.5-0.1,0.9-0.2,1.4c-0.1,0.5-0.2,0.9-0.4,1.3s-0.4,0.8-0.6,1.2
		c-0.2,0.4-0.5,0.8-0.7,1.1l-4.6,7.3h6.5v1.5L118.4,570.4L118.4,570.4z" />
    <path
      d="M213.5,563.1c0,1.1,0,2.1-0.1,3.1c-0.1,0.9-0.3,1.7-0.5,2.4s-0.7,1.2-1.3,1.6c-0.6,0.4-1.4,0.5-2.3,0.5
		c-1,0-1.7-0.2-2.3-0.5c-0.6-0.4-1-0.9-1.3-1.5c-0.3-0.7-0.5-1.4-0.5-2.4s-0.1-2-0.1-3.1v-3.3c0-1.1,0.1-2.1,0.2-3
		c0.1-0.9,0.3-1.7,0.6-2.3c0.3-0.6,0.7-1.1,1.3-1.4c0.6-0.3,1.3-0.5,2.3-0.5c1,0,1.7,0.2,2.3,0.5c0.6,0.3,1,0.8,1.3,1.4
		c0.3,0.6,0.5,1.4,0.6,2.3c0.1,0.9,0.1,1.9,0.1,2.9L213.5,563.1L213.5,563.1z M211.5,560c0-0.9,0-1.8-0.1-2.5
		c-0.1-0.7-0.2-1.3-0.3-1.8c-0.2-0.5-0.4-0.9-0.7-1.1c-0.3-0.2-0.7-0.4-1.2-0.4c-0.5,0-0.9,0.1-1.2,0.4c-0.3,0.2-0.5,0.6-0.7,1.1
		c-0.2,0.5-0.3,1.1-0.3,1.8c-0.1,0.7-0.1,1.6-0.1,2.5v3.5c0,0.9,0,1.7,0.1,2.4c0.1,0.7,0.2,1.3,0.3,1.8c0.2,0.5,0.4,0.8,0.7,1.1
		c0.3,0.3,0.7,0.4,1.2,0.4c0.5,0,0.9-0.1,1.2-0.4c0.3-0.2,0.5-0.6,0.7-1.1c0.2-0.5,0.3-1.1,0.3-1.8c0.1-0.7,0.1-1.5,0.1-2.4
		L211.5,560L211.5,560z M224.2,562.1c0,1.4,0,2.6-0.1,3.6c-0.1,1.1-0.3,2-0.6,2.7c-0.3,0.7-0.7,1.3-1.3,1.7
		c-0.6,0.4-1.4,0.6-2.4,0.6c-1.4,0-2.4-0.3-3-1s-0.9-1.7-0.9-3.1h2c0,0.4,0,0.7,0.1,1.1c0.1,0.3,0.2,0.6,0.3,0.8
		c0.2,0.2,0.4,0.4,0.6,0.5c0.3,0.1,0.6,0.2,1,0.2c0.5,0,0.9-0.1,1.2-0.4c0.3-0.3,0.6-0.6,0.8-1.1s0.3-1.1,0.4-1.9
		c0.1-0.8,0.1-1.7,0.1-2.7v-0.8c-0.4,0.5-0.8,0.8-1.2,1.1c-0.5,0.2-1,0.4-1.7,0.4c-0.8,0-1.4-0.2-1.9-0.4c-0.5-0.3-0.9-0.7-1.1-1.2
		c-0.3-0.5-0.5-1.1-0.5-1.7c-0.1-0.7-0.1-1.4-0.1-2.1c0-0.8,0.1-1.5,0.2-2.2c0.1-0.7,0.4-1.3,0.7-1.7c0.3-0.5,0.8-0.9,1.3-1.2
		c0.6-0.3,1.3-0.4,2.1-0.4c1,0,1.7,0.2,2.3,0.5c0.5,0.4,1,0.8,1.3,1.4c0.3,0.6,0.5,1.4,0.5,2.2c0.1,0.8,0.1,1.7,0.1,2.7L224.2,562.1
		L224.2,562.1z M222.3,558c0-0.5,0-0.9-0.1-1.4c-0.1-0.5-0.2-0.8-0.3-1.2c-0.2-0.4-0.4-0.7-0.7-0.9c-0.3-0.2-0.7-0.3-1.2-0.3
		c-0.5,0-0.9,0.1-1.2,0.4c-0.3,0.2-0.5,0.5-0.7,0.9c-0.2,0.4-0.2,0.8-0.3,1.3c-0.1,0.5-0.1,1-0.1,1.5c0,0.5,0,1,0.1,1.5
		c0.1,0.5,0.2,0.9,0.3,1.2c0.2,0.4,0.4,0.7,0.6,0.9c0.3,0.2,0.7,0.3,1.1,0.3c0.6,0,1-0.1,1.3-0.4c0.3-0.2,0.6-0.6,0.7-1
		c0.2-0.4,0.3-0.8,0.3-1.3C222.2,559,222.3,558.5,222.3,558L222.3,558z" />
    <path
      d="M301.4,567.4v-15c-0.4,0.4-0.9,0.8-1.3,1.2c-0.5,0.4-1,0.7-1.5,1v-2c0.5-0.3,1-0.7,1.6-1.2c0.6-0.5,1-1,1.4-1.4h1.8v17.4
		L301.4,567.4L301.4,567.4z M316.7,560.1c0,1.1,0,2.1-0.1,3.1c-0.1,0.9-0.3,1.7-0.5,2.4s-0.7,1.2-1.3,1.6c-0.6,0.4-1.4,0.5-2.3,0.5
		s-1.7-0.2-2.3-0.5c-0.6-0.4-1-0.9-1.3-1.5c-0.3-0.7-0.5-1.4-0.5-2.4c-0.1-0.9-0.1-2-0.1-3.1v-3.3c0-1.1,0.1-2.1,0.2-3
		c0.1-0.9,0.3-1.7,0.6-2.3c0.3-0.6,0.7-1.1,1.3-1.4c0.6-0.3,1.3-0.5,2.3-0.5c1,0,1.7,0.2,2.3,0.5c0.6,0.3,1,0.8,1.3,1.4
		c0.3,0.6,0.5,1.4,0.6,2.3c0.1,0.9,0.1,1.9,0.1,2.9L316.7,560.1L316.7,560.1z M314.7,557c0-0.9,0-1.8-0.1-2.5
		c-0.1-0.7-0.2-1.3-0.3-1.8c-0.2-0.5-0.4-0.9-0.7-1.1c-0.3-0.2-0.7-0.4-1.2-0.4c-0.5,0-0.9,0.1-1.2,0.4c-0.3,0.2-0.5,0.6-0.7,1.1
		c-0.2,0.5-0.3,1.1-0.3,1.8c-0.1,0.7-0.1,1.6-0.1,2.5v3.5c0,0.9,0,1.7,0.1,2.4c0.1,0.7,0.2,1.3,0.3,1.8c0.2,0.5,0.4,0.8,0.7,1.1
		c0.3,0.3,0.7,0.4,1.2,0.4c0.5,0,0.9-0.1,1.2-0.4c0.3-0.2,0.5-0.6,0.7-1.1c0.2-0.5,0.3-1.1,0.3-1.8c0.1-0.7,0.1-1.5,0.1-2.4
		L314.7,557L314.7,557z" />
    <path
      d="M116.3,452.9c0,1.1,0,2.1-0.1,3.1c-0.1,0.9-0.3,1.7-0.5,2.4c-0.3,0.7-0.7,1.2-1.3,1.6c-0.6,0.4-1.4,0.5-2.3,0.5
		c-1,0-1.7-0.2-2.3-0.5c-0.6-0.4-1-0.9-1.3-1.5c-0.3-0.7-0.5-1.4-0.5-2.4s-0.1-2-0.1-3.1v-3.3c0-1.1,0.1-2.1,0.2-3s0.3-1.7,0.6-2.3
		s0.7-1.1,1.3-1.4c0.6-0.3,1.3-0.5,2.3-0.5c1,0,1.7,0.2,2.3,0.5c0.6,0.3,1,0.8,1.3,1.4c0.3,0.6,0.5,1.4,0.6,2.3
		c0.1,0.9,0.1,1.9,0.1,2.9L116.3,452.9L116.3,452.9z M114.3,449.8c0-0.9,0-1.8-0.1-2.5s-0.2-1.3-0.3-1.8c-0.2-0.5-0.4-0.9-0.7-1.1
		c-0.3-0.2-0.7-0.4-1.2-0.4c-0.5,0-0.9,0.1-1.2,0.4s-0.5,0.6-0.7,1.1c-0.2,0.5-0.3,1.1-0.3,1.8c-0.1,0.7-0.1,1.6-0.1,2.5v3.5
		c0,0.9,0,1.7,0.1,2.4c0.1,0.7,0.2,1.3,0.3,1.8c0.2,0.5,0.4,0.8,0.7,1.1c0.3,0.3,0.7,0.4,1.2,0.4c0.5,0,0.9-0.1,1.2-0.4
		c0.3-0.2,0.5-0.6,0.7-1.1c0.2-0.5,0.3-1.1,0.3-1.8c0.1-0.7,0.1-1.5,0.1-2.4L114.3,449.8L114.3,449.8z M127,455.3
		c0,0.8-0.1,1.5-0.2,2.1c-0.2,0.6-0.4,1.2-0.7,1.6c-0.3,0.5-0.8,0.8-1.4,1c-0.5,0.2-1.2,0.4-2,0.4c-1.6,0-2.7-0.4-3.3-1.1
		c-0.7-0.8-1-1.9-1-3.5h2c0,0.5,0,0.9,0.1,1.2c0.1,0.4,0.2,0.7,0.4,1c0.2,0.3,0.4,0.5,0.7,0.6c0.3,0.2,0.7,0.2,1.1,0.2
		c0.5,0,0.9-0.1,1.2-0.2c0.3-0.2,0.5-0.4,0.7-0.7c0.2-0.3,0.3-0.7,0.4-1.1c0.1-0.4,0.1-0.9,0.1-1.4c0-0.7-0.1-1.3-0.2-1.8
		c-0.1-0.5-0.3-0.8-0.6-1.1c-0.3-0.3-0.6-0.5-1.1-0.6c-0.5-0.1-1-0.2-1.6-0.2v-1.5c0.6,0,1.1-0.1,1.5-0.2c0.4-0.1,0.8-0.3,1-0.5
		c0.2-0.3,0.5-0.6,0.6-1.1c0.1-0.5,0.2-1,0.2-1.7c0-0.4,0-0.8-0.1-1.1c-0.1-0.4-0.2-0.7-0.3-0.9c-0.2-0.3-0.4-0.5-0.7-0.6
		c-0.3-0.2-0.6-0.2-1.1-0.2c-0.5,0-0.8,0.1-1.1,0.2c-0.3,0.2-0.5,0.4-0.7,0.6c-0.2,0.3-0.3,0.6-0.4,0.9s-0.1,0.7-0.1,1.1h-1.9v-0.2
		c0-1.4,0.3-2.4,1-3.1c0.7-0.7,1.7-1.1,3.2-1.1s2.5,0.4,3.1,1.1c0.6,0.7,1,1.8,1,3.3c0,0.5,0,1-0.1,1.5c-0.1,0.5-0.2,0.9-0.4,1.3
		c-0.2,0.4-0.5,0.7-0.8,1c-0.3,0.3-0.7,0.5-1.2,0.6c0.5,0.1,1,0.3,1.4,0.5c0.4,0.2,0.6,0.5,0.8,0.9c0.2,0.4,0.3,0.8,0.4,1.3
		s0.1,1,0.1,1.5L127,455.3z" />
    <path
      d="M247.7,454.2c0,1.1,0,2.1-0.1,3.1c-0.1,0.9-0.3,1.7-0.5,2.4c-0.3,0.7-0.7,1.2-1.3,1.6s-1.4,0.5-2.3,0.5
		c-1,0-1.7-0.2-2.3-0.5c-0.6-0.4-1-0.9-1.3-1.5c-0.3-0.7-0.5-1.4-0.5-2.4s-0.1-2-0.1-3.1v-3.3c0-1.1,0.1-2.1,0.2-3
		c0.1-0.9,0.3-1.7,0.6-2.3s0.7-1.1,1.3-1.4c0.6-0.3,1.3-0.5,2.3-0.5c1,0,1.7,0.2,2.3,0.5c0.6,0.3,1,0.8,1.3,1.4
		c0.3,0.6,0.5,1.4,0.6,2.3c0.1,0.9,0.1,1.9,0.1,2.9L247.7,454.2L247.7,454.2z M245.7,451.1c0-0.9,0-1.8-0.1-2.5
		c-0.1-0.7-0.2-1.3-0.3-1.8c-0.2-0.5-0.4-0.9-0.7-1.1c-0.3-0.2-0.7-0.4-1.2-0.4c-0.5,0-0.9,0.1-1.2,0.4c-0.3,0.2-0.5,0.6-0.7,1.1
		c-0.2,0.5-0.3,1.1-0.3,1.8c-0.1,0.7-0.1,1.6-0.1,2.5v3.5c0,0.9,0,1.7,0.1,2.4c0.1,0.7,0.2,1.3,0.3,1.8c0.2,0.5,0.4,0.8,0.7,1.1
		c0.3,0.3,0.7,0.4,1.2,0.4c0.5,0,0.9-0.1,1.2-0.4c0.3-0.2,0.5-0.6,0.7-1.1c0.2-0.5,0.3-1.1,0.3-1.8c0.1-0.7,0.1-1.5,0.1-2.4
		L245.7,451.1L245.7,451.1z M258.6,456.7c0,0.8-0.1,1.4-0.2,2c-0.2,0.6-0.4,1.1-0.7,1.6c-0.4,0.4-0.8,0.8-1.4,1
		c-0.6,0.2-1.3,0.4-2.1,0.4c-1.5,0-2.6-0.4-3.3-1.2c-0.7-0.8-1-2.1-1-3.7c0-0.5,0-0.9,0.1-1.4c0.1-0.5,0.2-0.9,0.3-1.3
		c0.2-0.4,0.4-0.8,0.7-1.1s0.8-0.5,1.3-0.7c-0.9-0.3-1.5-0.8-1.8-1.5c-0.3-0.7-0.5-1.5-0.5-2.4c0-1.5,0.3-2.6,1-3.5s1.7-1.3,3.3-1.3
		c1.5,0,2.5,0.4,3.2,1.1c0.7,0.7,1,1.8,1,3.3c0,0.5,0,0.9-0.1,1.4c-0.1,0.5-0.2,0.8-0.3,1.2c-0.2,0.4-0.4,0.7-0.7,1
		c-0.3,0.3-0.7,0.5-1.2,0.7c0.6,0.1,1,0.3,1.3,0.6c0.3,0.3,0.6,0.6,0.8,1c0.2,0.4,0.3,0.8,0.3,1.3
		C258.6,455.7,258.6,456.1,258.6,456.7L258.6,456.7z M256.6,456.7c0-0.5,0-0.9-0.1-1.3s-0.2-0.8-0.3-1.1c-0.2-0.3-0.4-0.6-0.7-0.8
		c-0.3-0.2-0.7-0.3-1.2-0.3c-0.5,0-0.9,0.1-1.2,0.3c-0.3,0.2-0.5,0.5-0.7,0.8c-0.2,0.3-0.3,0.7-0.3,1.1c-0.1,0.4-0.1,0.8-0.1,1.3
		s0,0.8,0.1,1.3c0.1,0.4,0.2,0.8,0.4,1.1c0.2,0.3,0.4,0.6,0.7,0.8c0.3,0.2,0.7,0.3,1.2,0.3c0.5,0,0.9-0.1,1.3-0.3
		c0.3-0.2,0.5-0.5,0.7-0.8c0.2-0.3,0.3-0.7,0.3-1.1C256.7,457.5,256.7,457.1,256.6,456.7L256.6,456.7z M256.5,448.6
		c0-0.4,0-0.8-0.1-1.3c0-0.4-0.2-0.8-0.3-1.1c-0.2-0.3-0.4-0.5-0.7-0.7c-0.3-0.2-0.7-0.3-1.1-0.3s-0.8,0.1-1.1,0.3s-0.5,0.4-0.7,0.7
		c-0.2,0.3-0.3,0.6-0.4,1c-0.1,0.4-0.1,0.8-0.1,1.2c0,0.4,0,0.8,0.1,1.2s0.2,0.7,0.4,1c0.2,0.3,0.4,0.5,0.7,0.7
		c0.3,0.2,0.7,0.3,1.1,0.3s0.8-0.1,1.1-0.3c0.3-0.2,0.5-0.4,0.7-0.7c0.2-0.3,0.3-0.6,0.3-1C256.4,449.3,256.5,448.9,256.5,448.6
		L256.5,448.6z" />
    <path
      d="M210.5,321.8c0,1.1,0,2.1-0.1,3.1c-0.1,0.9-0.3,1.7-0.5,2.4c-0.3,0.7-0.7,1.2-1.3,1.6c-0.6,0.4-1.4,0.5-2.3,0.5
		c-1,0-1.7-0.2-2.3-0.5c-0.6-0.4-1-0.9-1.3-1.5c-0.3-0.7-0.5-1.4-0.5-2.4s-0.1-2-0.1-3.1v-3.3c0-1.1,0.1-2.1,0.2-3
		c0.1-0.9,0.3-1.7,0.6-2.3s0.7-1.1,1.3-1.4c0.6-0.3,1.3-0.5,2.3-0.5c1,0,1.7,0.2,2.3,0.5c0.6,0.3,1,0.8,1.3,1.4
		c0.3,0.6,0.5,1.4,0.6,2.3c0.1,0.9,0.1,1.9,0.1,2.9L210.5,321.8L210.5,321.8z M208.5,318.7c0-0.9,0-1.8-0.1-2.5
		c-0.1-0.7-0.2-1.3-0.3-1.8c-0.2-0.5-0.4-0.9-0.7-1.1c-0.3-0.2-0.7-0.4-1.2-0.4c-0.5,0-0.9,0.1-1.2,0.4c-0.3,0.2-0.5,0.6-0.7,1.1
		c-0.2,0.5-0.3,1.1-0.3,1.8c-0.1,0.7-0.1,1.6-0.1,2.5v3.5c0,0.9,0,1.7,0.1,2.4s0.2,1.3,0.3,1.8c0.2,0.5,0.4,0.8,0.7,1.1
		c0.3,0.3,0.7,0.4,1.2,0.4c0.5,0,0.9-0.1,1.2-0.4c0.3-0.2,0.5-0.6,0.7-1.1s0.3-1.1,0.3-1.8c0.1-0.7,0.1-1.5,0.1-2.4L208.5,318.7
		L208.5,318.7z M216.4,329.1h-2.1l5-15.8h-6.5v-1.6h8.3v1.7L216.4,329.1z" />
    <path
      d="M302.8,321.8c0,1.1,0,2.1-0.1,3.1c-0.1,0.9-0.3,1.7-0.5,2.4c-0.3,0.7-0.7,1.2-1.3,1.6c-0.6,0.4-1.4,0.5-2.3,0.5
		s-1.7-0.2-2.3-0.5c-0.6-0.4-1-0.9-1.3-1.5c-0.3-0.7-0.5-1.4-0.5-2.4c-0.1-0.9-0.1-2-0.1-3.1v-3.3c0-1.1,0.1-2.1,0.2-3
		c0.1-0.9,0.3-1.7,0.6-2.3s0.7-1.1,1.3-1.4c0.6-0.3,1.3-0.5,2.3-0.5c1,0,1.7,0.2,2.3,0.5c0.6,0.3,1,0.8,1.3,1.4
		c0.3,0.6,0.5,1.4,0.6,2.3c0.1,0.9,0.1,1.9,0.1,2.9L302.8,321.8L302.8,321.8z M300.8,318.7c0-0.9,0-1.8-0.1-2.5
		c-0.1-0.7-0.2-1.3-0.3-1.8c-0.2-0.5-0.4-0.9-0.7-1.1c-0.3-0.2-0.7-0.4-1.2-0.4c-0.5,0-0.9,0.1-1.2,0.4c-0.3,0.2-0.5,0.6-0.7,1.1
		c-0.2,0.5-0.3,1.1-0.3,1.8c-0.1,0.7-0.1,1.6-0.1,2.5v3.5c0,0.9,0,1.7,0.1,2.4s0.2,1.3,0.3,1.8c0.2,0.5,0.4,0.8,0.7,1.1
		c0.3,0.3,0.7,0.4,1.2,0.4c0.5,0,0.9-0.1,1.2-0.4c0.3-0.2,0.5-0.6,0.7-1.1s0.3-1.1,0.3-1.8c0.1-0.7,0.1-1.5,0.1-2.4L300.8,318.7
		L300.8,318.7z M313.8,323.4c0,0.8-0.1,1.6-0.2,2.3c-0.1,0.7-0.3,1.4-0.6,1.9c-0.3,0.5-0.8,1-1.3,1.3c-0.5,0.3-1.3,0.5-2.2,0.5
		c-1,0-1.8-0.2-2.3-0.6c-0.6-0.4-1-1-1.3-1.7c-0.3-0.7-0.5-1.5-0.5-2.3c-0.1-0.9-0.1-1.8-0.1-2.7v-3.4c0-0.9,0-1.7,0.1-2.6
		c0.1-0.8,0.3-1.6,0.6-2.3c0.3-0.7,0.8-1.3,1.4-1.7c0.6-0.4,1.4-0.6,2.4-0.6c1.4,0,2.4,0.3,3,1c0.6,0.7,0.9,1.7,0.9,3h-2
		c0-0.7-0.2-1.3-0.4-1.8c-0.3-0.5-0.8-0.7-1.6-0.7c-0.6,0-1,0.2-1.4,0.5c-0.3,0.4-0.6,0.8-0.8,1.4c-0.2,0.6-0.3,1.2-0.3,1.9
		c0,0.7-0.1,1.4-0.1,2.1v1c0.4-0.5,0.8-0.9,1.2-1.2c0.5-0.3,1.1-0.4,1.8-0.4c0.7,0,1.3,0.1,1.8,0.4s0.8,0.6,1.1,1.1
		c0.3,0.5,0.5,1,0.6,1.7C313.8,322,313.8,322.7,313.8,323.4L313.8,323.4z M311.8,323.5c0-0.5,0-1-0.1-1.4c-0.1-0.5-0.2-0.9-0.3-1.2
		c-0.2-0.4-0.4-0.6-0.7-0.8c-0.3-0.2-0.7-0.3-1.2-0.3c-0.5,0-1,0.1-1.3,0.4s-0.5,0.6-0.7,1c-0.2,0.4-0.3,0.8-0.3,1.3
		c-0.1,0.5-0.1,1-0.1,1.4c0,0.5,0,1,0.1,1.5c0.1,0.5,0.2,0.9,0.3,1.3c0.2,0.4,0.4,0.7,0.7,0.9c0.3,0.2,0.7,0.4,1.2,0.4
		c0.5,0,1-0.1,1.3-0.4s0.5-0.6,0.7-1.1c0.1-0.4,0.2-0.9,0.3-1.4C311.8,324.4,311.8,323.9,311.8,323.5L311.8,323.5z" />
  </g>
  <g id="marks">
    <rect id="mark_01" x="27.8" y="549.2" class="mark" width="28" height="23" />
    <rect id="mark_02" x="105.8" y="549.9" class="mark" width="28" height="23" />
    <rect id="mark_03" x="105.8" y="441.4" class="mark" width="28" height="23" />
    <rect id="mark_04" x="27.8" y="441.4" class="mark" width="28" height="23" />
    <rect id="mark_05-1" x="56.8" y="308.6" class="mark" width="28" height="23" />
    <rect id="mark_05-2" x="176.8" y="65.1" class="mark" width="28" height="23" />
    <rect id="mark_06" x="289.5" y="308.6" class="mark" width="28" height="23" />
    <rect id="mark_07" x="198.1" y="308.6" class="mark" width="28" height="23" />
    <rect id="mark_08" x="235.8" y="441.4" class="mark" width="28" height="23" />
    <rect id="mark_09" x="200.2" y="551.2" class="mark" width="28" height="23" />
    <rect id="mark_10" x="296.2" y="549.2" class="mark" width="28" height="23" />
  </g>
  <use id="pin" href="map-pin.svg#pin" x="27.8" y="549.2" transform="translate(14,-22)" />
</svg>
